<?xml version="1.0" encoding="utf-8"?>
<svg id="master-artboard" viewBox="0 0 160 160" version="1.1" xmlns="http://www.w3.org/2000/svg" x="0px" y="0px" style="enable-background:new 0 0 1400 980;" width="160px" height="160px"><rect id="ee-background" x="0" y="0" width="160" height="160" style="fill: rgb(217, 252, 229); fill-opacity: 0; pointer-events: none;"/>

<g transform="matrix(0.551834762096405, 0, 0, 0.551834762096405, -398.89068603515625, -183.2070083618164)">
			<path class="st0" d="M811.7,467.6c0,0.2,0,0.5-0.1,0.7c-0.1,1,0,2,0.1,2.9c0.3,1.7,0.1,2.2,0.2,2.3c0.5,0.5-0.2-0.6,0.7-0.5&#10;&#9;&#9;&#9;&#9;c7.7,1.1,13.3,8,13,15.8c0,2.7,0.2,6.1,0.5,9.8c0.3,4.4,0.7,8.8,1.2,12.8c0.4,3.7,0.6,5.6,0.8,5.8c0.2,0.4,0.5,0.2,2,1.3&#10;&#9;&#9;&#9;&#9;c2,1.6,8.6,5.6,14.8,9.4l0,0c9.8,6,19.1,11.7,21.4,17.2c0.9,2.2,1.3,4.6,1.1,6.8c0,5.5-0.9,11.2-3.1,16&#10;&#9;&#9;&#9;&#9;c-3,6.6-7.8,11.5-14.9,13.2c-0.2,0.1-0.5,0.2-0.7,0.3c2.9,0.9,5.6,2.6,7.6,5.3l0,0l0.2,0.2l0,0c0.1,0.1,0.1,0.2,0.2,0.2l0,0&#10;&#9;&#9;&#9;&#9;l0.2,0.2c0.2,0.2,0.3,0.4,0.5,0.7l0.1,0.1l0,0l0.2,0.2c0.1,0.1,0.2,0.2,0.3,0.3l0.2,0.2l0,0l0.1,0.1l0,0l0.2,0.3l0,0l0.1,0.1l0,0&#10;&#9;&#9;&#9;&#9;l0,0l0,0l0.1,0.1h0l0.1,0.1c0.1,0.1,0.2,0.2,0.3,0.3l0.3,0.2l0,0l0.1,0.1l0.1,0l0.3,0.3l0,0l0.2,0.1l0.1,0.1&#10;&#9;&#9;&#9;&#9;c0.1,0.1,0.2,0.2,0.3,0.2l0.2,0.1l0,0l0.3,0.2l0,0l0.1,0.1l0,0l0,0l0.3,0.2l0.2,0.1l0,0l0.1,0.1l0.1,0.1c0.2,0.1-0.2-0.1,0.2,0.1&#10;&#9;&#9;&#9;&#9;l0,0l0.2,0.1c0.2,0.1,0.4,0.2,0.5,0.3l0.4,0.2l0,0c0.1,0.1,0.2,0.1,0.3,0.2l0,0c0.2,0.1-0.2-0.1,0.2,0.1c0.1,0.1,0.3,0.1,0.4,0.2&#10;&#9;&#9;&#9;&#9;l0.3,0.1l0,0l0,0l0,0c0.4,0.2,0,0,0.3,0.1l0.2,0.1l0,0l0,0l0,0c0.2,0.1,0.1,0,0,0l0,0c0.9,0.3-0.4-0.1,0.2,0.1l0.3,0.1l0,0l0,0&#10;&#9;&#9;&#9;&#9;l0,0c0.1,0,0,0,0.3,0.1c0.1,0,0.3,0.1,0.4,0.1c0.1,0,0.2,0.1,0.3,0.1l0,0l0,0l0,0l0,0c1.1,0.3,0.4,0.1,0,0l0.1,0l0.2,0.1&#10;&#9;&#9;&#9;&#9;c0.2,0,0.1,0,0.2,0l0,0l0,0l0,0l0.2,0l0.1,0c-0.1,0-0.1,0,0.2,0l0.1,0c-0.1,0-0.1,0,0.3,0c0.1,0,0.2,0,0.3,0.1l0,0&#10;&#9;&#9;&#9;&#9;c0.4,0,0.5,0.1,0.5,0.1l0.4,0c0.7,0.1-0.3,0,0.2,0l0,0.1c6.4,1.6,10.9,7.3,11.4,13.9l65.8,0c-3.5-11.9-8.1-12.9-18.3-15.2&#10;&#9;&#9;&#9;&#9;c-6.6-1.4-14.5-3.2-24.5-6.3c-3,0.7-6.3,0.4-9.4-1c-0.3-0.1-0.6-0.3-0.8-0.4l-1.2-0.6c-3.3-1.6-6.3-3.1-8.7-4.7&#10;&#9;&#9;&#9;&#9;c-12.3-5-13-19.7-13.3-29.1h0l0,0c-0.2-4.2,1.3-8.1,3.9-11l0,0c3.4-3.9,11-8.4,18.9-13.1c5.5-3.3,11.2-6.7,13.7-8.7&#10;&#9;&#9;&#9;&#9;c0.9-0.7,1.3-0.9,1.3-1c0.3-0.6,0.6-2.5,1-5.7c0.6-5.4,0.9-10.4,1.2-15.4c0.2-3.1,0.4-6.2,0.5-8.2c0.4-6.1,4.3-11.2,9.5-13.3l0,0&#10;&#9;&#9;&#9;&#9;c0.4-0.2,0.9-0.4,1.4-0.6l0,0l0.3-0.1c0.9-0.3,1.1-0.4,2.3-0.7c0.1-0.5,0.2-1.2,0.4-2.1c0.2-0.8,0.2-2,0-3.3&#10;&#9;&#9;&#9;&#9;c-0.1-0.5,0.1-0.4,0-0.6c-2-3.2-2.7-6.9-2.3-10.4c0.4-4.6,1.1-8.7,1.9-12.9c0.8-4.8,1.7-9.7,2-13.3c0.5-5.6,1-8.6,1.3-10.9&#10;&#9;&#9;&#9;&#9;c0.2-1.5,0.7-0.4,0.5-1.4c-0.3-1.7-0.5,0.7-2.4-1.6l-1-1.3c-3.1-3.7-4.2-8.5-3.3-13c-2.4-3.8-5.8-7.5-12.9-10.2&#10;&#9;&#9;&#9;&#9;c-0.3-0.1-0.6-0.2-0.9-0.4l0,0l-13.7-6.3c-2.7-1.2-4.9-3.2-6.4-5.6l-0.7-0.1c-2.1,0-4.3-0.4-6.5-1.2c-0.5-0.2-0.9-0.3-1.4-0.5&#10;&#9;&#9;&#9;&#9;c-2.3-1.1-4.2-2.6-5.7-4.5c-2.3-0.2-4.2-0.2-5.3-0.3l0,0c-3.1,0-5.8,0.1-8.5,0.5c-2.3,0.4-4.4,1-6.7,1.9&#10;&#9;&#9;&#9;&#9;c-1.1,0.4-2.2,1.5-3.3,2.6c-2.1,2-4.3,4.1-8.1,6.4c-2.5,1.5-5.3,2.2-8,2.1c-5.1-0.1-8.4,0.1-10.5,0.9c-1,0.4-2.1,1.3-3.4,2.9&#10;&#9;&#9;&#9;&#9;c-1.7,2.1-1.7,2.6-1.8,3c-0.3,2.5-0.6,4.6-2.3,7.9c-1.1,2-2.1,3.5-3.1,4.7c-0.1,5.1-1.9,7.8-4,11c-0.1,0.1-0.1,0.2,1.4,6.7&#10;&#9;&#9;&#9;&#9;c0.9,3.9,1.1,4.8,1.4,5.7c1.8,7,4,15.9,4.7,22.4C817.3,457.8,815.6,463.7,811.7,467.6L811.7,467.6z M832.8,586.6&#10;&#9;&#9;&#9;&#9;c-2.1,0.6-4.2,1.2-6.4,1.8c-2.6,0.7-5.3,1.5-9.3,2.5c-2.4,0.6-0.2,0-2.9,0.7c-6.9,1.7-18.3,4.5-19.6,6.5&#10;&#9;&#9;&#9;&#9;c-1.8,2.6-3.3,6.3-4.4,10.4l44.6,0c-0.1-0.2-0.3-0.3-0.4-0.5c-0.4-0.4-0.7-0.8-1.1-1.2l-0.2-0.2l0,0l-0.1-0.1&#10;&#9;&#9;&#9;&#9;c-0.2-0.2-0.4-0.5-0.6-0.8l-0.2-0.2l0,0C828.2,599.6,828.6,591.9,832.8,586.6L832.8,586.6z M864.2,593.3L864.2,593.3L864.2,593.3&#10;&#9;&#9;&#9;&#9;L864.2,593.3z M864.2,593.3L864.2,593.3L864.2,593.3C864.3,593.4,864.3,593.3,864.2,593.3L864.2,593.3L864.2,593.3z M864.8,593.5&#10;&#9;&#9;&#9;&#9;L864.8,593.5L864.8,593.5L864.8,593.5L864.8,593.5L864.8,593.5z M864.8,593.5L864.8,593.5C864.1,593.3,864.5,593.4,864.8,593.5&#10;&#9;&#9;&#9;&#9;L864.8,593.5z M867.8,594.3L867.8,594.3L867.8,594.3L867.8,594.3L867.8,594.3z M863.5,624.8L863.5,624.8L863.5,624.8L863.5,624.8&#10;&#9;&#9;&#9;&#9;L863.5,624.8z M868.4,594.4l0.1,0l0.1,0l0,0l0.1,0l0,0l0.3,0l0,0C868.8,594.4,868.6,594.4,868.4,594.4L868.4,594.4L868.4,594.4z&#10;&#9;&#9;&#9;&#9; M869,594.5C869.2,594.5,869.2,594.5,869,594.5C869.2,594.5,869.2,594.5,869,594.5z" style="fill-rule: evenodd; clip-rule: evenodd; fill: rgb(230, 231, 232);"/>
		</g><path class="st1" d="M805.9,455.1c-4.7,0.6-6.4,2-8,6.1c-1.4,3.7-1.7,8.6-0.9,12.8c1.7,9.4,4.9,13.1,13.7,14.3&#10;&#9;&#9;&#9;c0.1,8,0.8,17.1,1.7,24.9c1.2,10.8,2.1,12.5,8.5,17.6c5.4,4.2,30.9,18.7,31.5,20.3c0.1,7.4-1.9,15.2-8.4,15.3&#10;&#9;&#9;&#9;c1.4,1-25.8,9.2-24.5,10.2c5.4,4,39.1,24.7,47.5,25c6.7,0.2,41.6-9.2,46.7-19.9c2-4.2-24.2-13.8-22.9-15.3&#10;&#9;&#9;&#9;c-5.1-0.7-5.5-10.2-5.7-15.9c3.4-3.8,23.3-14.2,30.6-19.8c5.8-4.5,7-7.3,8.2-17.2c1-8.2,1.2-16.2,1.8-24.4l1-0.5&#10;&#9;&#9;&#9;c0.7-0.3,0.7-0.3,1.5-0.5c6.6-1.7,9.3-4.9,11.1-14c1-5.2,0.4-13.3-3.5-17c-1.9-1.8-4-1.6-5.3-2.2&#10;&#9;&#9;&#9;C932.1,374.2,800.7,371.4,805.9,455.1z" style="fill-rule: evenodd; clip-rule: evenodd; fill: rgb(252, 195, 117);" transform="matrix(0.551834762096405, 0, 0, 0.551834762096405, -398.89068603515625, -183.2070083618164)"/><path class="st1" d="M801.2,456.5c-1.5,0.9-2.4,2.4-3.3,4.7c-1.4,3.7-1.7,8.6-0.9,12.8c1.7,9.4,4.9,13.1,13.7,14.3&#10;&#9;&#9;&#9;c0.1,8,0.8,17.1,1.7,24.9c1.2,10.8,2.1,12.5,8.5,17.6c5.4,4.2,30.9,18.7,31.5,20.3c0.1,7.4-1.9,15.2-8.4,15.3&#10;&#9;&#9;&#9;c0.5,0.4-2.8,1.7-7.1,3.3c-7.8,1.7-15.5,4.1-23.5,6.2c-8.4,2.2-26.1,5.9-31.2,13.4c-6,8.9-9.2,23-9.5,34.5l95.6,0.1l96.4,0&#10;&#9;&#9;&#9;c-8.3-54-15.4-36.7-64.8-54.4c0.7,2.3,1.5-0.2,0.4,2.3c-5.3-2.6-10.1-4.9-9.5-5.5c-5.1-0.7-5.5-10.2-5.7-15.9&#10;&#9;&#9;&#9;c3.4-3.8,23.3-14.2,30.6-19.8c5.8-4.5,7-7.3,8.2-17.2c1-8.2,1.2-16.2,1.8-24.4l1-0.5c0.7-0.3,0.7-0.3,1.5-0.5&#10;&#9;&#9;&#9;c6.6-1.7,9.3-4.9,11.1-14c0.9-4.5,0.5-11.1-2.1-15.3c0.7-7.5,3.1-17.7,4-26.7c1.8-19.1,4.6-14.8-5.1-26.6h4.5&#10;&#9;&#9;&#9;c-6.2-8.7-7.7-20.2-26.9-27.6l-13.7-6.3l10.6,2.3c-7-6.1-13.6-7.9-25.1-9.8c-1.7-3.5-0.9,2.3,0.5-1.1c1-2.3,2,1.2,0.3-1.4&#10;&#9;&#9;&#9;c-2.1-3.1-14.4-3.5-18.1-3.5c-8.1-0.1-14.1,0.6-21,3.5c-6.4,2.6-8,6.7-13.5,10c-14.2-0.3-19.7,1.8-25.9,9.4&#10;&#9;&#9;&#9;c-6.5,8-4.5,11-5.8,13.4c-2.4,4.5-5.8,3.9-5,9.8c0.9,6.3-6.7,3.5-2.1,23.4c1.6,7.1,5.8,21.8,5.9,28.1&#10;&#9;&#9;&#9;C800.9,455.7,801,456,801.2,456.5L801.2,456.5z M844.3,596.1c0.1,0.2,0.2,0.3,0.4,0.5C844.6,596.4,844.4,596.2,844.3,596.1&#10;&#9;&#9;&#9;L844.3,596.1z M844.9,596.9c0.1,0.1,0.2,0.3,0.3,0.4C845.1,597.1,845,597,844.9,596.9L844.9,596.9z M846.1,598.3&#10;&#9;&#9;&#9;c0.1,0.1,0.2,0.3,0.4,0.4C846.4,598.6,846.2,598.5,846.1,598.3L846.1,598.3z M846.7,599c0.1,0.2,0.3,0.3,0.4,0.5&#10;&#9;&#9;&#9;C847,599.4,846.9,599.2,846.7,599L846.7,599z M847.4,599.8c0.2,0.2,0.3,0.3,0.5,0.5C847.7,600.1,847.6,600,847.4,599.8&#10;&#9;&#9;&#9;L847.4,599.8z M848.1,600.5c0.2,0.2,0.3,0.3,0.5,0.4C848.4,600.8,848.3,600.6,848.1,600.5L848.1,600.5z M848.7,601.1&#10;&#9;&#9;&#9;c0.2,0.2,0.3,0.3,0.5,0.5C849.1,601.5,848.9,601.3,848.7,601.1L848.7,601.1z M849.5,601.8c0.2,0.2,0.4,0.3,0.6,0.5&#10;&#9;&#9;&#9;C849.8,602.1,849.7,602,849.5,601.8L849.5,601.8z M850.2,602.5c0.2,0.2,0.4,0.3,0.6,0.5C850.6,602.8,850.4,602.6,850.2,602.5&#10;&#9;&#9;&#9;L850.2,602.5z M851,603.1c0.2,0.2,0.4,0.3,0.6,0.5C851.4,603.4,851.2,603.3,851,603.1L851,603.1z M851.8,603.7&#10;&#9;&#9;&#9;c0.2,0.2,0.4,0.3,0.7,0.5C852.2,604,852,603.8,851.8,603.7L851.8,603.7z M852.6,604.3c0.2,0.2,0.5,0.3,0.7,0.5&#10;&#9;&#9;&#9;C853,604.6,852.8,604.4,852.6,604.3L852.6,604.3z M853.4,604.9c0.2,0.2,0.5,0.3,0.7,0.5C853.9,605.2,853.7,605,853.4,604.9&#10;&#9;&#9;&#9;L853.4,604.9z M854.3,605.4c0.2,0.2,0.5,0.3,0.7,0.4C854.8,605.7,854.5,605.6,854.3,605.4L854.3,605.4z M855.1,605.9&#10;&#9;&#9;&#9;c0.2,0.1,0.5,0.3,0.7,0.4C855.6,606.2,855.4,606.1,855.1,605.9L855.1,605.9z M856,606.4c0.3,0.1,0.5,0.3,0.8,0.4&#10;&#9;&#9;&#9;C856.5,606.7,856.3,606.5,856,606.4L856,606.4z M857,606.9c0.3,0.1,0.5,0.3,0.8,0.4C857.5,607.1,857.2,607,857,606.9L857,606.9z&#10;&#9;&#9;&#9; M857.9,607.3c0.3,0.1,0.6,0.2,0.9,0.4C858.5,607.6,858.2,607.5,857.9,607.3L857.9,607.3z M858.9,607.7c0.3,0.1,0.6,0.2,0.9,0.3&#10;&#9;&#9;&#9;C859.4,608,859.2,607.9,858.9,607.7L858.9,607.7z M859.8,608.1c0.3,0.1,0.6,0.2,0.9,0.3C860.4,608.3,860.1,608.2,859.8,608.1&#10;&#9;&#9;&#9;L859.8,608.1z M860.9,608.5c0.3,0.1,0.6,0.2,0.9,0.3C861.4,608.6,861.2,608.6,860.9,608.5L860.9,608.5z M861.9,608.8&#10;&#9;&#9;&#9;c0.3,0.1,0.6,0.2,0.9,0.2C862.5,608.9,862.2,608.9,861.9,608.8L861.9,608.8z M863,609c0.3,0.1,0.6,0.2,1,0.2&#10;&#9;&#9;&#9;C863.6,609.2,863.3,609.1,863,609L863,609z M864,609.3c0.3,0.1,0.7,0.1,1,0.2C864.6,609.4,864.3,609.3,864,609.3L864,609.3z&#10;&#9;&#9;&#9; M865.1,609.5c0.3,0.1,0.6,0.1,1,0.1C865.8,609.6,865.4,609.5,865.1,609.5L865.1,609.5z M866.3,609.7c0.3,0,0.7,0.1,1,0.1&#10;&#9;&#9;&#9;C866.9,609.7,866.6,609.7,866.3,609.7L866.3,609.7z M867.4,609.8c0.4,0,0.7,0.1,1.1,0.1C868.1,609.8,867.8,609.8,867.4,609.8z" style="fill-rule: evenodd; clip-rule: evenodd; fill: rgb(252, 195, 117);" transform="matrix(0.551834762096405, 0, 0, 0.551834762096405, -398.89068603515625, -183.2070083618164)"/><path class="st3" d="M884.9,409c13.1,0,25.1,4.4,33.4,12.2c6.7,6.4,2.2,12.9,1.4,23.5c-0.4,5.2,2.1,6,3.4,10.4&#10;&#9;&#9;&#9;c2.4,8.2,1.7,15.9,1.9,24.6c7.2-1.4,8.7-12.8,12.2-19.5c0.5-7.6,3.2-18.5,4.1-28.2c1.8-19.1,4.6-14.8-5.1-26.6h4.5&#10;&#9;&#9;&#9;c-6.2-8.7-7.7-20.2-26.9-27.6l-13.7-6.3l10.6,2.3c-7-6.1-13.6-7.9-25.1-9.8c-1.7-3.5-0.9,2.3,0.5-1.1c1-2.3,2,1.2,0.3-1.4&#10;&#9;&#9;&#9;c-2.1-3.1-14.4-3.5-18.1-3.5c-8.1-0.1-14.1,0.6-21,3.5c-6.4,2.6-8.1,6.7-13.5,10c-14.3-0.3-19.7,1.8-25.9,9.4&#10;&#9;&#9;&#9;c-6.5,8-4.5,11-5.8,13.4c-2.4,4.5-5.8,3.9-5,9.8c0.9,6.3-6.7,3.5-2.1,23.4c1.6,7.1,5.8,21.8,5.9,28.1c0.4,0.6,5.6,16.5,10.6,24.2&#10;&#9;&#9;&#9;l0.6-2c1.6-7,1-18.7,3.1-23.5c2.6-6.3,4.2-5.3,2.6-13.5c-0.8-4.1-2.6-10.7-1.3-15c4.4-14.9,36.6-18.9,53-17L884.9,409z" style="fill-rule: evenodd; clip-rule: evenodd; fill: rgb(35, 31, 32);" transform="matrix(0.551834762096405, 0, 0, 0.551834762096405, -398.89068603515625, -183.2070083618164)"/><path class="st4" d="M801.6,417.4c-1.6-0.9,5.3-36.6,47-41C847.9,376.1,809,391.3,801.6,417.4z" style="fill-rule: evenodd; clip-rule: evenodd; fill: rgb(255, 255, 255);" transform="matrix(0.551834762096405, 0, 0, 0.551834762096405, -398.89068603515625, -183.2070083618164)"/><path class="st14" d="M772.8,623.8l95.6,0.1l96.4,0c-8.3-54-15.4-36.7-64.8-54.4c0.8,2.5,1.7-0.7,0.1,3c2.3,6.4-5.3,21-8.9,25.2&#10;&#9;&#9;&#9;c-6.5,7.4-10.8,9.5-22.7,12.2c-25.1-1.4-34.8-31.6-30.9-37.8c-1.4-1.5-1.2,0.6-0.2-2.5c-8,1.7-15.8,4.2-24,6.3&#10;&#9;&#9;&#9;c-8.4,2.2-26.1,5.9-31.2,13.4C776.3,598.2,773,612.3,772.8,623.8z" style="fill-rule: evenodd; clip-rule: evenodd; fill: rgb(78, 79, 81);" transform="matrix(0.551834762096405, 0, 0, 0.551834762096405, -398.89068603515625, -183.2070083618164)"/><path class="st7" d="M868.5,609.9c11.9-2.7,16.2-4.8,22.7-12.2c3.6-4.1,11.2-18.8,8.9-25.2c-3.8,8.1-7.2,11.8-12.6,16.6&#10;&#9;&#9;&#9;c-3.5,3-12.8,9-18.8,8.6c-13.4-1-27.5-15.2-31-25.7C833.6,578.3,843.4,608.5,868.5,609.9z" style="fill-rule: evenodd; clip-rule: evenodd; fill: rgb(255, 241, 0);" transform="matrix(0.551834762096405, 0, 0, 0.551834762096405, -398.89068603515625, -183.2070083618164)"/><path class="st4" d="M839.3,599.2c-0.6,0.5,5.2,14.7,22.8,12.9C861.8,612.3,844.5,609.3,839.3,599.2z" style="fill-rule: evenodd; clip-rule: evenodd; fill: rgb(255, 255, 255);" transform="matrix(0.551834762096405, 0, 0, 0.551834762096405, -398.89068603515625, -183.2070083618164)"/>
</svg>