<?xml version="1.0" standalone="no"?>
<!DOCTYPE svg PUBLIC "-//W3C//DTD SVG 20010904//EN"
 "http://www.w3.org/TR/2001/REC-SVG-20010904/DTD/svg10.dtd">
<svg version="1.0" xmlns="http://www.w3.org/2000/svg"
 width="338.000000pt" height="338.000000pt" viewBox="0 0 338.000000 338.000000"
 preserveAspectRatio="xMidYMid meet">

<g transform="translate(0.000000,338.000000) scale(0.100000,-0.100000)"
fill="#159f85" stroke="none">
<path d="M1190 3370 c-8 -5 -31 -10 -50 -10 -38 0 -114 -26 -145 -50 -44 -33
-61 -114 -30 -140 11 -9 12 -17 5 -30 -11 -20 -35 -180 -50 -325 -5 -49 -14
-121 -19 -160 -6 -38 -11 -142 -11 -230 0 -287 30 -319 330 -345 58 -5 139
-14 180 -19 41 -6 81 -10 88 -11 17 0 7 -98 -13 -118 -9 -10 -83 -16 -281 -25
-310 -12 -339 -13 -416 -3 l-58 7 0 64 c0 61 -1 65 -35 91 l-35 26 -162 -4
c-90 -3 -171 -8 -180 -12 -24 -11 -27 -25 -16 -81 22 -120 22 -115 -3 -115
-13 0 -54 -8 -91 -17 l-66 -17 -12 -50 c-12 -51 -19 -101 -39 -276 -14 -128
-31 -475 -31 -635 0 -71 -7 -170 -15 -220 -20 -125 -20 -399 0 -451 36 -89 75
-144 102 -144 7 0 13 -4 13 -8 0 -4 21 -14 47 -21 38 -11 253 -14 1057 -17
702 -2 1017 -6 1036 -14 18 -7 132 -9 361 -7 448 6 505 16 594 106 50 49 77
106 89 186 2 17 9 60 16 98 19 111 -7 1225 -30 1268 -6 10 -10 25 -10 34 0 9
-7 33 -16 53 -44 103 -88 162 -119 162 -12 0 -30 10 -41 21 l-19 21 -470 -8
c-258 -5 -567 -9 -685 -9 l-215 0 -14 53 c-8 29 -12 54 -10 56 2 2 58 10 124
16 234 23 270 28 305 40 40 15 100 76 100 103 0 10 6 28 13 40 8 15 14 110 19
312 4 160 10 348 14 418 4 79 2 138 -4 155 -6 15 -13 39 -16 54 -3 14 -20 40
-36 57 -56 55 -110 73 -280 91 -46 5 -91 12 -100 16 -56 23 -640 44 -670 24z
m630 -95 c80 -7 161 -19 180 -26 112 -40 149 -72 173 -151 14 -44 17 -114 19
-414 l3 -360 -26 -40 c-29 -44 -135 -114 -173 -114 -12 0 -27 -5 -32 -10 -6
-6 -66 -16 -133 -22 -129 -12 -441 1 -526 22 -22 5 -63 10 -91 10 -28 0 -59 6
-70 15 -10 8 -26 15 -35 15 -21 0 -75 55 -87 89 -45 120 -46 136 -28 311 10
102 16 239 16 361 -1 168 1 200 16 232 21 45 71 77 122 78 20 1 51 5 67 9 51
13 451 10 605 -5z m-162 -1292 l-3 -68 -45 0 -45 0 -3 54 c-4 75 0 81 53 81
l46 0 -3 -67z m-1003 -33 l0 -45 -60 -6 c-33 -3 -94 -10 -136 -14 l-76 -8 -6
48 c-8 78 -12 76 142 73 l136 -3 0 -45z m2525 -184 c17 -33 30 -64 30 -67 0
-3 -33 -10 -72 -13 -153 -15 -215 -24 -271 -37 -55 -13 -60 -12 -73 6 -9 12
-14 46 -14 102 l0 83 173 2 c94 2 178 -1 185 -6 7 -5 26 -36 42 -70z m-469 62
c0 -7 0 -67 -1 -133 -1 -117 0 -121 25 -145 24 -23 28 -23 83 -12 32 7 80 12
108 13 27 0 83 6 124 12 41 7 100 12 130 12 l55 0 3 -112 3 -111 -58 -5 c-99
-9 -235 -26 -292 -37 -29 -5 -87 -10 -128 -10 -41 0 -99 -7 -129 -16 -64 -18
-72 -14 -106 52 -12 24 -25 44 -29 44 -4 0 -10 8 -14 18 -6 21 -144 162 -157
162 -5 0 -24 11 -41 24 -92 69 -291 120 -380 97 -25 -6 -106 -11 -179 -11
-128 0 -146 -3 -243 -40 -78 -29 -169 -83 -231 -135 -26 -22 -50 -42 -53 -45
-4 -3 -35 -39 -70 -80 -84 -99 -85 -100 -124 -88 -64 20 -427 46 -667 47
l-155 1 0 213 0 213 70 13 c38 7 109 16 157 21 49 5 93 12 99 16 6 3 464 8
1017 10 841 3 1105 9 1175 22 4 1 7 -4 8 -10z m-884 -258 c8 -20 10 -37 5 -42
-5 -5 -43 -12 -83 -15 l-74 -5 -17 32 c-34 60 -26 66 91 64 62 -1 64 -2 78
-34z m221 5 c1 -1 -5 -16 -14 -33 -13 -28 -21 -32 -55 -32 -40 0 -42 2 -54 54
l-6 28 63 -7 c35 -4 64 -8 66 -10z m-438 -47 c11 -23 20 -42 20 -43 0 -1 -18
-8 -41 -15 -40 -14 -41 -13 -71 19 -23 24 -28 35 -19 44 10 10 62 32 83 36 4
0 17 -18 28 -41z m612 -30 c27 -16 46 -34 43 -38 -3 -4 -20 -15 -39 -24 -35
-16 -76 -11 -91 13 -3 6 -15 11 -26 11 -23 0 -25 22 -2 56 20 31 45 27 115
-18z m-758 -25 c11 -15 21 -30 21 -34 0 -10 -98 -119 -107 -119 -4 0 -27 19
-50 41 l-43 41 39 34 c22 19 45 34 51 34 7 0 18 7 25 15 19 22 40 18 64 -12z
m524 -70 c20 -8 48 -21 62 -27 52 -23 120 -79 154 -127 20 -27 36 -53 36 -58
0 -5 7 -22 15 -37 21 -41 20 -210 -1 -261 -55 -129 -112 -207 -205 -278 -57
-45 -142 -74 -235 -82 -167 -14 -361 97 -436 248 -88 179 -49 376 105 531 106
106 149 120 360 112 68 -3 121 -10 145 -21z m385 -31 c44 -55 45 -65 12 -80
-42 -19 -60 -14 -94 29 l-33 40 28 29 c16 16 34 29 39 29 6 0 27 -21 48 -47z
m-1043 -82 c17 0 11 -21 -13 -54 -13 -17 -26 -39 -30 -48 -7 -19 -52 -25 -62
-8 -3 6 -13 10 -21 10 -8 0 -31 7 -50 15 l-36 15 30 41 c17 22 45 56 62 75
l31 35 40 -41 c21 -22 43 -40 49 -40z m-935 -41 c28 -6 179 -13 338 -16 158
-3 287 -8 287 -10 0 -2 -4 -11 -9 -21 -4 -9 -16 -34 -26 -54 l-17 -37 -77 5
c-42 2 -101 7 -131 10 -30 3 -167 9 -305 14 -137 5 -258 12 -268 16 -15 5 -17
14 -11 53 4 25 8 48 9 51 5 8 154 0 210 -11z m2843 -17 c2 -12 -3 -24 -10 -27
-12 -4 -269 -20 -519 -32 -103 -5 -107 -4 -114 17 -4 12 -5 23 -3 25 1 2 44
-1 93 -6 141 -15 459 11 515 42 22 12 35 6 38 -19z m-774 -8 c9 -8 16 -25 16
-38 0 -12 5 -27 11 -33 23 -23 3 -38 -52 -37 -52 0 -53 1 -70 42 l-18 42 42
19 c53 24 52 24 71 5z m-1321 -78 c18 -8 51 -22 75 -32 36 -15 42 -22 36 -39
-4 -11 -9 -51 -13 -90 -5 -55 -9 -69 -21 -66 -8 2 -54 4 -102 3 -48 0 -90 3
-93 7 -7 13 29 150 53 199 19 36 22 37 65 18z m2095 -40 c2 -10 0 -22 -6 -28
-8 -8 -135 -18 -464 -35 -131 -6 -148 -1 -148 48 l0 29 63 -8 c100 -11 468 -8
497 5 33 16 54 12 58 -11z m-2899 -16 c47 -5 176 -14 286 -20 281 -15 315 -19
315 -37 0 -10 -6 -13 -16 -9 -9 3 -96 9 -193 12 -141 5 -193 3 -262 -10 -47
-9 -108 -16 -135 -16 -27 0 -71 -7 -99 -15 -69 -21 -77 -16 -71 47 2 29 4 54
5 56 2 5 90 1 170 -8z m2181 -119 c0 -51 -4 -82 -13 -89 -15 -13 -106 3 -122
22 -6 6 -9 40 -7 79 l4 67 69 0 69 0 0 -79z m718 -22 l3 -46 -83 -6 c-127 -9
-302 -25 -417 -37 -62 -7 -108 -7 -113 -2 -5 5 -8 33 -6 63 l3 54 255 -3 c206
-2 261 1 285 12 53 26 70 17 73 -35z m-2320 -15 l-3 -55 -375 0 -375 0 0 32
c0 33 0 33 70 45 40 7 173 13 310 14 132 1 263 5 290 10 91 14 86 17 83 -46z
m330 -73 c6 0 12 -13 12 -29 0 -15 7 -38 17 -51 16 -23 15 -25 -13 -45 -16
-11 -61 -51 -101 -89 -39 -38 -77 -67 -83 -65 -16 5 -37 67 -51 148 -18 105
-18 121 2 128 15 6 169 8 217 3z m1202 -51 c16 -4 25 -13 24 -26 -2 -22 -26
-87 -35 -94 -4 -3 -9 -15 -13 -27 -9 -29 -17 -29 -64 0 -20 13 -45 26 -54 30
-23 8 -23 24 2 65 11 18 20 39 20 46 0 26 41 28 120 6z m-1532 -31 c-2 -15 -9
-23 -18 -20 -80 22 -316 29 -569 17 -177 -9 -183 -8 -179 10 3 18 20 19 378
24 206 3 379 2 383 -1 5 -4 7 -17 5 -30z m2322 -24 l0 -65 -126 0 c-126 0
-201 -6 -427 -36 -65 -9 -121 -13 -124 -10 -3 3 1 25 10 48 8 24 18 57 22 75
8 41 29 47 102 33 65 -13 371 -8 463 8 30 5 61 10 68 11 8 1 12 -18 12 -64z
m-2580 -48 l275 -2 6 -38 c3 -21 11 -48 16 -60 6 -12 19 -42 29 -67 10 -25 28
-60 41 -77 l24 -33 -454 0 -454 0 -7 61 c-9 77 0 90 52 77 20 -5 200 -12 400
-15 359 -6 362 -6 362 15 0 16 -10 22 -47 31 -103 22 -314 32 -478 21 -88 -5
-188 -10 -222 -10 l-63 0 0 50 0 49 58 3 c31 2 86 2 122 0 36 -2 189 -4 340
-5z m699 -62 c22 -30 41 -58 41 -63 0 -5 -17 -33 -39 -63 -21 -30 -53 -80 -71
-111 -17 -32 -35 -58 -38 -58 -4 0 -42 37 -85 82 -88 93 -89 86 13 161 30 23
71 56 90 74 19 18 38 33 41 33 4 0 25 -25 48 -55z m927 -25 c6 -6 26 -19 45
-29 19 -10 35 -25 37 -32 3 -19 -80 -109 -101 -109 -17 0 -71 67 -82 101 -15
45 69 101 101 69z m954 -61 c0 -41 -14 -78 -34 -91 -6 -4 -54 -8 -106 -8 -52
-1 -153 -5 -225 -10 -71 -6 -194 -14 -271 -19 -78 -6 -154 -13 -168 -17 -35
-9 -33 5 11 56 20 24 45 57 54 74 9 17 27 34 40 37 13 4 101 5 194 2 94 -2
206 0 250 5 44 5 119 10 168 11 l87 1 0 -41z m-1733 -41 c55 -38 64 -48 55
-63 -4 -5 -9 -55 -12 -110 -5 -95 -6 -100 -28 -103 -41 -6 -187 55 -206 86 -3
5 14 36 37 68 23 32 53 80 65 107 13 26 27 47 32 47 5 0 31 -15 57 -32z m634
-19 c7 -18 24 -45 38 -61 29 -35 23 -52 -29 -79 -18 -10 -38 -23 -44 -29 -5
-5 -16 -10 -23 -10 -15 0 -76 128 -69 146 4 11 89 61 107 63 4 1 12 -13 20
-30z m-409 -58 c37 -4 73 -12 79 -18 9 -9 17 -8 34 3 15 10 41 14 71 12 47 -3
48 -4 56 -42 5 -21 18 -51 29 -67 17 -24 18 -33 9 -44 -7 -8 -22 -15 -34 -15
-11 0 -30 -7 -40 -15 -11 -8 -32 -15 -48 -15 -34 0 -58 41 -58 100 0 38 -11
52 -25 30 -4 -6 -8 -38 -10 -73 -1 -34 -3 -66 -4 -70 -1 -4 -43 -6 -93 -5
l-93 3 3 30 c1 17 5 70 8 118 6 85 8 88 28 82 11 -4 51 -10 88 -14z m-917 -69
l280 -7 35 -32 c19 -18 30 -33 25 -33 -6 0 -218 0 -473 0 -411 0 -463 -1 -468
-15 -4 -9 -5 -18 -3 -20 18 -18 484 -44 886 -50 160 -2 218 -7 240 -17 58 -30
99 -47 128 -52 75 -13 96 -19 101 -27 5 -9 -740 -17 -1041 -12 -138 3 -154 6
-245 47 -66 29 -140 137 -140 203 l0 36 198 -8 c108 -4 323 -10 477 -13z
m2405 -17 c0 -9 -6 -18 -12 -20 -7 -3 -98 -10 -203 -15 -291 -15 -470 -28
-533 -39 -73 -13 -242 -22 -242 -13 0 4 12 15 28 24 15 10 40 28 55 40 28 23
32 23 405 29 207 3 405 6 440 7 50 2 62 -1 62 -13z m-50 -114 c0 -13 -62 -63
-102 -82 -100 -49 -108 -49 -697 -47 -304 1 -545 5 -535 9 11 4 39 12 64 19
25 6 59 16 75 21 66 23 111 27 375 34 151 3 334 10 405 15 217 15 357 28 363
34 9 10 52 7 52 -3z"/>
<path d="M1240 3156 l-75 -11 -5 -45 c-3 -25 -10 -52 -15 -60 -32 -49 -65
-729 -38 -776 19 -33 141 -51 253 -36 48 7 202 12 342 12 282 0 304 4 352 60
35 43 40 66 31 173 -3 51 -10 207 -13 347 -6 216 -10 260 -25 287 -33 62 -41
63 -404 62 -183 -1 -361 -7 -403 -13z m673 -92 c23 -4 42 -15 50 -28 8 -14 14
-113 19 -311 3 -159 9 -307 13 -327 7 -37 2 -43 -27 -39 -4 0 -24 -6 -45 -13
-29 -10 -116 -14 -356 -14 l-317 -1 -30 30 -30 31 0 335 0 335 153 -6 c83 -4
224 -2 312 2 88 5 174 10 190 10 17 1 47 -1 68 -4z"/>
<path d="M1642 2934 c-29 -30 -57 -66 -62 -79 l-10 -25 -37 23 c-21 13 -61 32
-89 41 -48 16 -54 16 -86 0 -39 -18 -68 -60 -68 -96 1 -35 68 -127 125 -170
59 -45 148 -88 181 -88 37 0 69 19 89 53 10 18 31 47 47 66 16 18 39 54 50 80
11 25 27 58 34 73 8 14 14 48 14 74 0 65 -35 104 -94 104 -36 -1 -47 -7 -94
-56z"/>
</g>
</svg>
