<?xml version="1.0" encoding="utf-8"?>
<svg id="master-artboard" viewBox="0 0 160 160" version="1.1" xmlns="http://www.w3.org/2000/svg" x="0px" y="0px" style="enable-background:new 0 0 1400 980;" width="160px" height="160px"><rect id="ee-background" x="0" y="0" width="160" height="160" style="fill: rgb(217, 252, 229); fill-opacity: 0; pointer-events: none;"/>

<path class="st0" d="M514.7,191.2c0,0.3,0.1,0.3,0.1,0.4l0,0l0,0l0,0l0,0c0-0.1,0-0.3,0,0c0.3,0.9,0.5,1.7,0.6,2.6&#10;&#9;&#9;&#9;c0.3,0.8,0.8,1.6,1.4,2.3c1.7,1.8,4.4,3.7,7.5,5.8c2.4,1.6,5.1,3.1,8,4.6c2.6,1.3,5.5,2.5,8.7,3.6c4.7,1.5,8.5,4.6,11,8.4&#10;&#9;&#9;&#9;c2.7-3.8,6.7-6.6,11.4-7.9c4.1-1.4,8.2-3.4,12.1-5.7c5.1-3,9.8-6.5,13.5-9.8c0,0,0-0.1,0.1-0.3c-1-2.9-1.4-6.1-1-9.2l0,0l0-0.1&#10;&#9;&#9;&#9;c0.7-6,3.8-11.1,8.3-14.4c1.2-1.3,2.8-4.5,4.5-8.5c3.6-8.5,6.2-18.3,7.3-24.6c1.7-9.8,1.6-20-0.9-28.9c-1.9-6.7-5.1-12.6-10-16.7&#10;&#9;&#9;&#9;c-0.5-0.4-0.9-0.8-1.4-1.3c-4-3.5-6.2-6.5-8.5-9.6c-1.8-2.5-3.7-4.9-12.7-7.8c-5.4-1.7-10.3-2.7-15.3-3.8&#10;&#9;&#9;&#9;c-2.8-0.6-5.7-1.2-8.6-1.9c-1.3,1.2-2.7,2.3-4.3,3.2c-2.1,1.2-4.3,2-6.6,2.4c-7.3,1.6-14.1,3.2-19.7,5.3&#10;&#9;&#9;&#9;c-4.8,1.7-8.8,3.8-11.9,6.4c-7.2,6.3-8.8,13.5-11.8,27.1l-0.2,0.9c-2.4,10.6-3.8,21.3-3.2,31.4c0.5,8.8,2.8,17.3,7.6,24.8&#10;&#9;&#9;&#9;c1,1.6,2.7,4,4.4,6.2c1,1.3,2.2,2.6,3.2,3.7C511.9,183.1,513.9,187,514.7,191.2L514.7,191.2L514.7,191.2z M514.8,191.6&#10;&#9;&#9;&#9;L514.8,191.6C514.8,191.7,514.8,191.9,514.8,191.6L514.8,191.6L514.8,191.6L514.8,191.6L514.8,191.6L514.8,191.6z M551.5,246.2&#10;&#9;&#9;&#9;c-0.3,0.5-0.6,1.1-0.9,1.6c-1.5,2.6-3.4,4.7-5.7,6.3c0.5,0.8,1,1.7,1.6,2.9c1.2,2.3,1.8,4.1,2.5,6c0.4,1,0.8,2.1,1.5,3.5&#10;&#9;&#9;&#9;c4.2,7.7,3,16.9-2.3,23.3c1.7-0.5,3.5-0.7,5.3-0.7V289h0c2.9,0,5.6,0.6,8.1,1.6h64.5c-0.1-0.4-0.1-0.8-0.2-1.1l-0.1,0&#10;&#9;&#9;&#9;c-0.2-1.7-0.7-3.7-1.4-5.5c-0.3-0.7,0.2-0.5-0.1-0.8c-0.4-0.4-7.1-3.3-15-6.7c-11.4-4.8-23.1-9.3-25.1-9.5&#10;&#9;&#9;&#9;c-5.8-0.6-10.8-3.6-14.2-7.9c-4.5-0.2-9-1.8-12.8-4.9c-2.1-1.8-3.8-4-5-6.3C552,247.4,551.7,246.8,551.5,246.2L551.5,246.2z&#10;&#9;&#9;&#9; M506.5,272.4c-6,2.2-12,4.3-17.5,6.9c-2.3,1.1-3.4,1.6-4.5,2c-2.3,1-3-0.4-3.8,0.8c-0.1,0.1-0.7,3.3-1.9,8.5h37.8&#10;&#9;&#9;&#9;c-1.2-1.3-2.2-2.7-3-4.2c-0.3-0.5-0.5-1-0.8-1.5C510.9,281.3,508.6,276.7,506.5,272.4L506.5,272.4z M589.7,192.7&#10;&#9;&#9;&#9;c-0.1,0.4,0-0.3,0.2-0.9C589.8,192.1,589.7,192.4,589.7,192.7L589.7,192.7z" style="fill-rule: evenodd; clip-rule: evenodd; fill: rgb(230, 231, 232);" transform="matrix(0.551834762096405, 0, 0, 0.551834762096405, -225.0345344543457, -11.579763412475586)"/><path class="st1" d="M486.5,133c-4.9,0.5-6.7,2-8.3,5.9c-1.5,3.6-1.7,8.3-0.9,12.4c1.8,9.2,5.1,12.7,14.2,13.9&#10;&#9;&#9;&#9;c0.1,7.8,0.9,16.7,1.8,24.2c1.3,10.6,2.1,12.1,8.8,17.1c5.6,4.1,32,18.2,32.7,19.7c0.1,7.2-2,14.8-8.7,14.9&#10;&#9;&#9;&#9;c7.2,5.3,13.3,9.6,24,9.9c9.7,0.3,19.6-4.8,24.5-10c-5.3-0.7-5.7-9.9-5.9-15.5c3.5-3.7,24.2-13.8,31.7-19.3&#10;&#9;&#9;&#9;c6-4.3,7.3-7.1,8.5-16.7c1-7.9,1.2-15.8,1.8-23.7l1.1-0.5c0.8-0.3,0.7-0.3,1.6-0.5c6.8-1.7,9.6-4.7,11.5-13.6&#10;&#9;&#9;&#9;c1.1-5.1,0.4-12.9-3.6-16.5c-2-1.7-4.1-1.5-5.5-2.2C617.4,54.2,481.1,51.5,486.5,133z" style="fill-rule: evenodd; clip-rule: evenodd; fill: rgb(252, 195, 117);" transform="matrix(0.551834762096405, 0, 0, 0.551834762096405, -225.0345344543457, -11.579763412475586)"/><path class="st1" d="M494.1,195c0.2,1.1,0.4,2,0.7,2.9c2.3,10.5,9.4,16.1,18.2,21.8c6.1,4,13.4,7.9,21.6,10.6&#10;&#9;&#9;&#9;c-0.3,2.6-0.9,5-2.1,6.9c-1.7-1.9-3.1-3.6-4-4.8c-0.8,1.6-0.9,3.3-1.6,4.6c-1.9,3.3,0.2,0.9-3.4,2.3c-4.3,1.7-4.2,1.4-5.9,6.4&#10;&#9;&#9;&#9;c-11.9,5.2-25.9,9.1-37.5,14.6c-5.8,2.8-13.4,5.1-16.7,10c-3.1,4.5-7.7,25.7-9.6,41.3h200.4c-3.3-11.7-7.5-24.1-7.3-24.5&#10;&#9;&#9;&#9;c-0.8-6.5-3.6-14.7-7.3-18.5c-5.8-6-46.2-21.7-52.9-22.4c-0.5-9.7-6.2-7.1-7.3-8.1c-1.9-2.9-1.5-3.4-2.6-6.3&#10;&#9;&#9;&#9;c-2,1.7-3.9,4.1-5.8,6.3c-1-1.9-1.5-4.5-1.8-7c13-4.2,25.4-12.5,33.9-20c5.7-5,6.2-9.3,8.1-18c-0.3-3.2-0.7-3.9-2-4.9l0-0.1&#10;&#9;&#9;&#9;c10.4-8.2,17.7-33.5,20-46.4c4.2-24-0.4-50.6-18.2-65.3c-9.2-7.6-7.2-15.4-29.6-22.5c-13.9-4.4-25.4-4.8-41.5-10.7&#10;&#9;&#9;&#9;c-3.3-1.2-10.2-5.1-12.7-4.8c-0.4,4.4,1.1,5.8,3.1,8.6c2,2.8,5.5,4.7,6.4,6.3c-16.6,3.5-31.3,7.6-41.6,16.5&#10;&#9;&#9;&#9;c-12.7,11-14.6,20.7-18.8,39.4c-5.5,24.7-6.8,50.4,7.3,72.2C485.4,184.7,490.1,191.2,494.1,195L494.1,195z M521.3,255l3.1,6&#10;&#9;&#9;&#9;c1.5,2.9,2.2,3.1,3.5,5.5c1.5,3,1.8,5.5,4.3,10C528.7,270.4,524.2,260.8,521.3,255L521.3,255z M553.3,311.4c0-0.2,0.1-0.5,0.2-0.8&#10;&#9;&#9;&#9;C553.3,310.9,553.3,311.2,553.3,311.4L553.3,311.4L553.3,311.4z M553.4,310.6c0.1-0.2,0.1-0.3,0.2-0.5h0&#10;&#9;&#9;&#9;C553.5,310.3,553.5,310.4,553.4,310.6z" style="fill-rule: evenodd; clip-rule: evenodd; fill: rgb(252, 195, 117);" transform="matrix(0.551834762096405, 0, 0, 0.551834762096405, -225.0345344543457, -11.579763412475586)"/><path class="st3" d="M497.3,197.6c-0.7-5.5-1.7-10.8-2.2-16.4c-0.4-3.8-0.4-13.7-1.3-16.4c-3.7-1.6-5.6-0.5-8.5-3.5&#10;&#9;&#9;&#9;c-6.7-6.6-6.9-21.9-1.3-26c2.4,4.6,4.9,12.5,8.6,19.7c0.5,1,1.1,2.2,1.6,3.1l1.9,2.6c-0.8-7.4-3-11.2-2.2-20.2&#10;&#9;&#9;&#9;c0.4-4.8,2.1-14.3,7.6-15.2c0.2,3.1-0.4,5.6-1.4,7.9c-1.1,2.7-2.4,3.6-3.1,5.9c12.8-0.8,23.2-15.3,29.2-17.3c-0.8,2.7-2.4,4-4,5.5&#10;&#9;&#9;&#9;c-1.5,1.4-3.7,2.6-4.8,4c10.9-0.9,23.2-12.1,29.7-11.8c0.3,9.2-12.2,17-12.2,21.2c11.2,3.2,27.9-7.2,34.5-11.8&#10;&#9;&#9;&#9;c13.5-9.5,21.2-20.7,23.9-22.7c1.6,11.5,2.1,20.2,7,29.6c1.1,2.2,2.4,3.3,3.7,5.9c4.5,9,3.3,17.8,5.3,21.3&#10;&#9;&#9;&#9;c4.2-5.9,5.7-25.4,7.1-29c9,1.1,11,29.6-7.3,30.5l0.8,32.4c11.5-6.3,16.8-41.3,19.2-55c4.2-24-0.4-50.6-18.2-65.3&#10;&#9;&#9;&#9;c-9.2-7.6-7.2-15.4-29.6-22.5c-13.9-4.4-25.4-4.8-41.5-10.7c-3.3-1.2-10.2-5.1-12.7-4.8c-0.4,4.4,1.1,5.8,3.1,8.6&#10;&#9;&#9;&#9;c2,2.8,5.5,4.7,6.4,6.3c-16.6,3.5-31.3,7.6-41.6,16.5c-12.7,11-14.6,20.7-18.8,39.4c-5.5,24.7-6.8,50.4,7.3,72.2&#10;&#9;&#9;&#9;C486,185.7,493,195.2,497.3,197.6z" style="fill-rule: evenodd; clip-rule: evenodd; fill: rgb(35, 31, 32);" transform="matrix(0.551834762096405, 0, 0, 0.551834762096405, -225.0345344543457, -11.579763412475586)"/><path class="st0" d="M489,101.5c-1.6-0.9,5.3-35.6,46.8-39.8C535.1,61.3,496.3,76.2,489,101.5z" style="fill-rule: evenodd; clip-rule: evenodd; fill: rgb(230, 231, 232);" transform="matrix(0.551834762096405, 0, 0, 0.551834762096405, -225.0345344543457, -11.579763412475586)"/><path class="st10" d="M528.5,232.5c-0.8,1.6-0.9,3.3-1.6,4.6c-1.9,3.3,0.2,0.9-3.4,2.3c-4.3,1.7-4.2,1.4-5.9,6.4l3.7,9.2l3.1,6&#10;&#9;&#9;&#9;c1.5,2.9,2.2,3.1,3.5,5.5c1.8,3.5,1.9,6.4,5.9,12.7l9.4,17.1c0.6,1.5,0.8,1.8,1.6,3.2c0.9,1.5,0.1,0.1,1,1.6&#10;&#9;&#9;&#9;c0.7,1.3,0.2,0.1,1,1.9c0.6,0.8,2,3.3,2.7,4.6c0,0.1,1.5,2.4,1.6,2.5c1.6,1.5-0.2,0.7,2.2,1.2c0.1-3.1,13.7-24.4,17.3-31.5&#10;&#9;&#9;&#9;l16-33.7c-0.5-9.7-6.2-7.1-7.3-8.1c-1.9-2.9-1.5-3.4-2.6-6.3c-3.4,3.1-6.7,7.9-10.1,11.1c-2.5,2.4-9.1,7.5-13.6,7.7&#10;&#9;&#9;&#9;C544,251.1,532.1,237.1,528.5,232.5z" style="fill-rule: evenodd; clip-rule: evenodd; fill: rgb(239, 237, 237);" transform="matrix(0.551834762096405, 0, 0, 0.551834762096405, -225.0345344543457, -11.579763412475586)"/><path class="st11" d="M552.9,251.4l-0.9-0.4c-2.1,3.4-5.1,6.5-7.1,10.1c3.1,5.5,3.6,0.8,2.4,10.6l-4.2,38.2l18.4,0.4&#10;&#9;&#9;&#9;c0-7.4-2.6-28.3-3.7-37.6c-1-8.6-1.4-7.2,1.1-10.2c1.3-1.6,0,0.6,1.1-1.4L552.9,251.4z" style="fill-rule: evenodd; clip-rule: evenodd; fill: rgb(194, 68, 55);" transform="matrix(0.551834762096405, 0, 0, 0.551834762096405, -225.0345344543457, -11.579763412475586)"/><path class="st12" d="M654.2,311.7c-3.3-11.7-7.5-24.1-7.3-24.5c-0.8-6.5-3.6-14.7-7.3-18.5c-5.8-6-46.2-21.7-52.9-22.4l-16,33.7&#10;&#9;&#9;&#9;c-3.6,7.2-17.3,28.4-17.3,31.5c-2.4-0.5-0.7,0.3-2.2-1.2c0,0-1.5-2.4-1.6-2.5c-0.8-1.4-2.1-3.9-2.7-4.6c-0.9-1.8-0.3-0.7-1-1.9&#10;&#9;&#9;&#9;c-0.9-1.5-0.1-0.1-1-1.6c-0.9-1.4-1-1.7-1.6-3.2l-9.4-17.1c-3.5-5.5-8.9-17.5-12.4-24.2l-3.7-9.2c-11.9,5.2-25.9,9.1-37.5,14.6&#10;&#9;&#9;&#9;c-5.8,2.8-13.4,5.1-16.7,10c-3.1,4.5-7.7,25.7-9.6,41.3H654.2z" style="fill-rule: evenodd; clip-rule: evenodd; fill: rgb(30, 32, 39);" transform="matrix(0.551834762096405, 0, 0, 0.551834762096405, -225.0345344543457, -11.579763412475586)"/>
</svg>