<?xml version="1.0" encoding="utf-8"?>
<svg id="master-artboard" viewBox="0 0 160 160" version="1.1" xmlns="http://www.w3.org/2000/svg" x="0px" y="0px" style="enable-background:new 0 0 1400 980;" width="160px" height="160px"><rect id="ee-background" x="0" y="0" width="160" height="160" style="fill: rgb(217, 252, 229); fill-opacity: 0; pointer-events: none;"/>

<g transform="matrix(0.551834762096405, 0, 0, 0.551834762096405, -578.3190841674805, -357.0631408691406)">
			<path class="st0" d="M1132.8,789.4c-0.1,0.1-0.1,0.2-0.2,0.3c-0.1,0.3-0.1,0.7-0.2,1.3c-0.1,1.1,0,2.1,0.1,3&#10;&#9;&#9;&#9;&#9;c0.1,0.3,0.2,0.9,0.4,1.7c0.1,0.3,0.2,0.7,0.3,1.1c0.6,1.8,0.9,3.7,0.9,5.5c0.4,7.3,1.6,14.5,3.9,21.3&#10;&#9;&#9;&#9;&#9;c2.3,6.6,5.6,12.6,10.3,17.7c0.9,1,1.9,2,3.2,3.1c1,0.8,2,1.6,3.3,2.4c0.7,0.5,1.6,0.9,2.4,1.2c1.3,0.6,2.2,0.9,2.8,1.1&#10;&#9;&#9;&#9;&#9;c1.2,0.4,2.4,1,3.4,1.6l1.7,1l2,1.2c2.7,1.6,4.8,3.9,6.1,6.6c0.8,0,1.5,0,2.3,0.1c2.7,0.4,5.1,1.3,7.1,2.8c1.1,0.7,2,1.3,2.5,1.7&#10;&#9;&#9;&#9;&#9;c2.8,2.1,4.8,4.6,6,7.4c1,2.5,1.4,5.1,1.2,7.6c-0.1,6.1-1.2,12.5-4,17.8c-3.9,7.4-10.1,12.4-19.5,13.1c-3.9,0.3-7.5-0.8-10.4-2.9&#10;&#9;&#9;&#9;&#9;c-1.2,3.8-3.9,7.1-7.6,9.2c-0.6,0.3-1.2,0.6-1.8,0.9c-2.3,1.1-4.3,2.3-5.7,3.6c-0.4,0.4-0.6,0.6-0.6,0.7c0,0.7-0.1,1.4-0.3,2.1&#10;&#9;&#9;&#9;&#9;c5.5,0.3,10.9,0.4,16.4,0.5c12.4,0.2,25,0,38.1-0.5c6.5-0.2,31.2-1.6,50-3.3l3.1-0.3c-0.9-1.8-1.8-3.3-2.5-4.5l-1.7-0.4&#10;&#9;&#9;&#9;&#9;c-0.3-0.1-0.5-0.1-0.8-0.2c-1.8-0.5-3.3-1-5-1.5c-0.9-0.3-1.9-0.6-3.1-1c-8-2.5-12.6-10.5-11.1-18.5l0,0l0.1-0.5&#10;&#9;&#9;&#9;&#9;c-1.4,1.4-3.1,2.5-5.1,3.3c-6.6,2.8-14.1,0.8-18.5-4.4c-1.3-1.4-2.5-2.7-3.3-4c-2.2-3.2-3.5-6.7-3.7-10.5&#10;&#9;&#9;&#9;&#9;c-0.2-4.5,1.5-8.7,4.4-11.7l0,0l0.1-0.1c0.3-0.3,0.6-0.6,0.9-0.8l0,0l0,0c3.1-2.9,7.1-4.3,11.1-4.3c0.7-1.5,1.5-2.9,2.7-4.2&#10;&#9;&#9;&#9;&#9;c1.2-1.3,2.5-2.4,4-3.3l0,0l1.4-0.8c5.9-3.5,12-7,14.8-9.1c0.7-0.5,1.2-0.9,1.5-1.2c0.8-1.7,1.9-3.2,3.2-4.5&#10;&#9;&#9;&#9;&#9;c3.8-4.3,6.6-9.7,8.7-15.6c2.4-6.9,3.8-14.5,4.5-22.2c0.1-1.1,0.3-2.2,0.7-3.3l0,0c0.2-0.5,0.3-0.9,0.3-1.1&#10;&#9;&#9;&#9;&#9;c0.3-1.1,0.4-1.6,0.4-1.6c0.1-0.6,0.2-1.3,0.1-2.2c0-0.7-0.1-1.4-0.3-2c-0.4-1.6-0.6-3.2-0.5-4.8c0-3.4-0.4-9.4-1.1-15.5&#10;&#9;&#9;&#9;&#9;c-0.6-5.2-1.3-10.1-2-12.7c-1.2-4.4-2.1-6.8-3.3-10.2l-0.7-1.8c-0.2-0.6-0.4-1.1-0.6-1.5c-0.2-0.4-0.6-1.1-1-1.8l-6.5-9.9l0,0&#10;&#9;&#9;&#9;&#9;c-0.6-0.9-1.7-2-3-3.1c-2.1-1.8-4.5-3.5-6.6-4.7c-2-0.6-4.3-1.7-9.8-5.8c-0.1,0-2-0.8-3.6-1.4c-0.7-0.3-1.4-0.5-2.1-0.8&#10;&#9;&#9;&#9;&#9;c-4.5-1.8-12.1-2.5-20.2-2.1c-8.3,0.4-16.3,1.8-20.9,4.1c-2.5,1.2-4.1,1.9-5.5,2.4c-1.3,0.5-2.2,0.9-3.8,2.1&#10;&#9;&#9;&#9;&#9;c-3.8,2.8-4.9,3.6-5.6,4.2c-0.8,0.6-1.3,1-1.6,1.2c-0.5,0.6-1.4,1.7-4.6,5.1l0,0c-0.4,0.5-0.8,0.8-1.1,1.1&#10;&#9;&#9;&#9;&#9;c-0.2,0.3-0.3,0.6-0.5,1l0,0c-6.4,11.3-11,19.6-13,33.6c-0.3,2.1-0.6,4.5-0.9,7.5c-0.3,2.3-0.5,4.8-0.7,7.5&#10;&#9;&#9;&#9;&#9;C1134.4,785.4,1133.8,787.5,1132.8,789.4L1132.8,789.4z M1248.3,914.9C1247.9,914.7,1247.7,914.5,1248.3,914.9L1248.3,914.9&#10;&#9;&#9;&#9;&#9;L1248.3,914.9z M1248.3,914.9L1248.3,914.9c0.8,0.5,0.7,0.5,0.4,0.3L1248.3,914.9L1248.3,914.9L1248.3,914.9z" style="fill-rule: evenodd; clip-rule: evenodd; fill: rgb(230, 231, 232);"/>
			<path class="st0" d="M1155.1,727.4C1154.9,727.6,1154.8,727.7,1155.1,727.4C1155,727.5,1155.1,727.5,1155.1,727.4z" style="fill-rule: evenodd; clip-rule: evenodd; fill: rgb(230, 231, 232);"/>
			<path class="st1" d="M1126.3,777.2c-5.1,0.6-6.9,2.1-8.6,6.4c-1.5,3.9-1.8,9-1,13.4c1.8,9.9,5.2,13.7,14.7,15&#10;&#9;&#9;&#9;&#9;c0.1,8.4,0.9,18,1.8,26.1c1.3,11.4,2.2,13.1,9.2,18.4c5.8,4.4,33.2,19.6,33.9,21.3c0.2,7.7-2,16-9,16.1c3.3,2.5-39.9,4.9-40.7,27&#10;&#9;&#9;&#9;&#9;c-0.3,9.7,59.3,6.2,65.6,6.4c10.1,0.3,50.7-20.1,55.8-25.7c-5.5-0.8-36.3-18.4-36.5-24.4c3.6-4,25-14.9,32.8-20.8&#10;&#9;&#9;&#9;&#9;c6.2-4.7,7.6-7.7,8.8-18c1-8.5,1.3-17,1.9-25.6l1.1-0.5c0.8-0.3,0.8-0.3,1.6-0.5c7.1-1.8,10-5.1,11.9-14.6&#10;&#9;&#9;&#9;&#9;c1.1-5.5,0.4-14-3.8-17.8c-2-1.9-4.3-1.7-5.7-2.3C1262,692.3,1120.7,689.3,1126.3,777.2z" style="fill-rule: evenodd; clip-rule: evenodd; fill: rgb(252, 195, 117);"/>
			<path class="st18" d="M1118.1,802.1c0.9,18.4,5.6,36.3,18.6,50.2c2.9,3.1,5.8,5.7,9.7,8.2c3.1,1.9,6.2,3.1,8.7,3.9&#10;&#9;&#9;&#9;&#9;c1.3,0.8,2.6,1.5,3.9,2.3c-1.3,1.4-4.2,3.3-6.4,5.3c-10.1,9-12.1,13.8-10.2,29c0.4,0.3,0.7,0.6,1,1.1&#10;&#9;&#9;&#9;&#9;c-8.4,3.7-15.9,9.3-16.5,18.1c-1.8-0.2-1.7,1.2-2.3,3.2c-0.7,2.1-2,5.5-3,8.6h150c-0.9-8.1-6.8-20.2-10.3-25.5&#10;&#9;&#9;&#9;&#9;c-4.3-6.5-3.1-5.2-11.4-7.2c-1.7-0.4-4.9-1.5-7.9-2.5c0.4-2.1,0.9-4.2,0.7-7.3c-0.2-3.6-1.7-7.7-3.3-10c-1.3-2-4.5-5.5-5.8-6.9&#10;&#9;&#9;&#9;&#9;c-0.9-0.9-2.2-2.2-3.3-3.1c-1-0.8-2.5-1.5-3.5-2.4c6.7-3.9,13.9-8.1,17.7-11c3.2-2.4,5.1-4.4,6.3-7.1&#10;&#9;&#9;&#9;&#9;c11.3-12.3,16.2-30.2,17.9-47.8c0.4-1.3,0.8-2.8,1.1-4.4c0.7-3.3,0.7-7.6-0.3-11.4l0-0.4c0.1-7.6-1.7-25.6-3.6-32.8&#10;&#9;&#9;&#9;&#9;c-1.5-5.5-2.6-8.4-4.4-13.4c-0.8-2.2-1.8-4.1-2.9-6l-7-10.7c-3.4-5-9.8-9.7-14.7-12.7c-5.2-3.2-1.1,0.5-8.4-4.9&#10;&#9;&#9;&#9;&#9;c-2.1-1.5-6.9-3.2-9.2-4.2c-13.5-5.5-41.1-4.1-54.3,2.4c-5.5,2.7-6.9,2.4-11.8,6.1c-12.8,9.5-6.3,4.1-14.1,12.6&#10;&#9;&#9;&#9;&#9;c-0.6,0.6-1.4,1.1-2.2,2.2c-1.2,1.5-0.8,1.3-1.6,2.9c-7.2,12.9-12.5,22.2-14.9,39.4c-0.7,5.2-1.3,10.5-1.7,16&#10;&#9;&#9;&#9;&#9;c-0.2,0.5-0.5,1-0.7,1.6c-1.5,3.9-1.8,9-1,13.4C1117.1,798.9,1117.5,800.6,1118.1,802.1z M1211.7,876.9c0.9,1.5,2.1,2.6,3,4.8&#10;&#9;&#9;&#9;&#9;c-1.9-1.8-3.1-3.4-3.2-4.6C1211.6,877,1211.6,876.9,1211.7,876.9z M1167.9,890.8c0.1-6.3,1.4-8.5,4.3-12.4&#10;&#9;&#9;&#9;&#9;c0.1-0.1,0.2-0.3,0.3-0.4c0.3-0.5,0.5-0.6,0.5-0.7c0-0.2,0.1-0.4,0.2-0.7c0.1-0.3,0.2-0.7,0.2-1.1c1.7,1.1,2.7,1.9,2.9,2.2&#10;&#9;&#9;&#9;&#9;c0.1,7.5-1.9,15.6-8.5,16.1C1167.9,892.8,1167.9,891.8,1167.9,890.8z" style="fill: rgb(252, 195, 117);"/>
			<path class="st19" d="M1275.4,941.5c-1.8-9.2-11.1-30.1-14.4-35c-4.3-6.5-3.1-5.2-11.4-7.2c-3.3-0.8-12.5-4.4-14.6-3.8&#10;&#9;&#9;&#9;&#9;c-2.6,1.1-14.3,8.6-22.5,12.5c-27.2,12.9-55.4,17.3-85.8,12.2c-1.9-0.2-1.8,1.2-2.4,3.2c-0.6,1.7-3.9,12.1-5.9,18.1H1275.4z" style="fill-rule: evenodd; clip-rule: evenodd; fill: rgb(216, 27, 87);"/>
			<path class="st8" d="M1142.3,900.9c2.9,1.9,2.2,11.3,2.1,15c6.1-1.5,5.7-6.5,9.2-8.5c3.9,5.6-0.4,13-2.3,16.3&#10;&#9;&#9;&#9;&#9;c6.7-0.4,12.3-8.9,14-10.1c3.8-7,2.5-13.6,2.7-22.9c0.1-6.3,1.4-8.5,4.3-12.4c0.1-0.1,0.2-0.3,0.3-0.4c1.2-1.8-0.1,1,0.7-1.3&#10;&#9;&#9;&#9;&#9;c0.7-2,0.2-4.8-0.3-6.8c-4.3-2.1-13.8-9.4-16.7-12.9c-2.2-2.6-4-5.4-5.9-8.7c-1.8-3.1-3-7-4.6-10.7c-3.8-8.7-8.3-33.8-4.9-45.3&#10;&#9;&#9;&#9;&#9;c0.9-3.2,1.2-2.8,2.6-5.1c6.2-0.6,10.9,1.7,24-0.1c15.8-2.1,28.2-7.6,39.3-18.2c3.7-3.6,4.4-5.2,7.2-8.6c2-2.4-0.2-0.8,2.4-2.2&#10;&#9;&#9;&#9;&#9;c-0.5,4.2-2,5.4-3.5,8.6c-1.4,2.8-3.4,5.7-4,8c4.9-0.6,11.6-6.8,14.6-10.1c2-2.2,3.4-3.5,5.5-6.6c1.2-1.7,1.5-2.2,2.5-3.9&#10;&#9;&#9;&#9;&#9;c0.2-0.3,1.2-2,1.2-2l2-1.7c2.2,1.2,1.4,0.8,2.5,3.1c0.5,1.1,1.2,2.1,1.7,3.2c0.9,1.8,2.2,5.3,3.1,7.7c1.8,4.6,4,11.5,4.8,16.9&#10;&#9;&#9;&#9;&#9;c3.1,21.3,5.7,34.2-5.4,54c-2.6,4.6-5,8.8-8.7,12.8c-4.8,5.2-9.2,11.7-15.7,16.8c-1.9,1.5-4.6,3-6.3,4.4&#10;&#9;&#9;&#9;&#9;c-0.6,11.2,5.1,6.7,5.6,19.5c0.1,4-0.3,8.6-0.3,12.8c0.1,7,0.8,5.8,2.7,10.8c4.3,3.9,6.9,9.5,13.9,10.1&#10;&#9;&#9;&#9;&#9;c-0.6-1.5-6.1-8.9-2.4-15.8c3.2,0.5,0.8,0.7,4.2,4.7c1.6,1.9,2.9,3,5.3,3.4c0-3.9-1.5-11.7,1.9-14c0.1-4.1,1.5-6.5,1.2-11.3&#10;&#9;&#9;&#9;&#9;c-0.2-3.6-1.7-7.7-3.3-10c-1.3-2-4.5-5.5-5.8-6.9c-0.9-0.9-2.2-2.2-3.3-3.1c-1.2-1-3.2-1.8-4-3c0.9-2.2,5.4-2.6,11.5-6.4&#10;&#9;&#9;&#9;&#9;c5.8-3.6,5.6-4.1,9.9-7.9c17.6-15.8,21.8-43.8,22-67.2c0.1-7.6-1.7-25.6-3.6-32.8c-1.5-5.5-2.6-8.4-4.4-13.4&#10;&#9;&#9;&#9;&#9;c-0.8-2.2-1.8-4.1-2.9-6l-7-10.7c-3.4-5-9.8-9.7-14.7-12.7c-5.2-3.2-1.1,0.5-8.4-4.9c-2.1-1.5-6.9-3.2-9.2-4.2&#10;&#9;&#9;&#9;&#9;c-13.5-5.5-41.1-4.1-54.3,2.4c-5.5,2.7-6.9,2.4-11.8,6.1c-12.8,9.5-6.3,4.1-14.1,12.6c-0.6,0.6-1.4,1.1-2.2,2.2&#10;&#9;&#9;&#9;&#9;c-1.2,1.5-0.8,1.3-1.6,2.9c-7.2,12.9-12.5,22.2-14.9,39.4c-3.9,28.7-5.1,63.2,16.5,86.3c2.9,3.1,5.8,5.7,9.7,8.2&#10;&#9;&#9;&#9;&#9;c5.2,3.3,10.3,4.3,12.6,5.3c0.1,0.1,0.3,0.1,0.5,0.2c-0.8,1.4-4.3,3.6-7,6C1142.4,880.9,1140.4,885.7,1142.3,900.9z" style="fill-rule: evenodd; clip-rule: evenodd; fill: rgb(60, 33, 14);"/>
			<path class="st19" d="M1124.8,779.5c0.8-3.4,7.8-14.8,10.2-18.3c27-39.5,95.6-44.5,124,7.5c0.7,1.3,1.6,3.3,2.3,5&#10;&#9;&#9;&#9;&#9;c0.5,1.1,0.6,1.2,1,2.3l1.4,3c3.2-5.4-3.3-65.7-69.7-63.2c-20.7,0.8-36.8,7.5-48.7,18.2C1136.5,741.9,1124.1,763.1,1124.8,779.5z&#10;&#9;&#9;&#9;&#9;" style="fill-rule: evenodd; clip-rule: evenodd; fill: rgb(216, 27, 87);"/>
			<path class="st4" d="M1131.1,749.7c-1.7-1,5.7-38.4,50.5-42.9C1180.8,706.4,1139,722.4,1131.1,749.7z" style="fill-rule: evenodd; clip-rule: evenodd; fill: rgb(255, 255, 255);"/>
		</g><path class="st4" d="M1198.1,920.8c0.6,0.7-5.6,14.1-24.5,7.6C1173.9,928.7,1192.5,930.1,1198.1,920.8z" style="fill-rule: evenodd; clip-rule: evenodd; fill: rgb(255, 255, 255);" transform="matrix(0.551834762096405, 0, 0, 0.551834762096405, -578.3190841674805, -357.0631408691406)"/>
</svg>