<?xml version="1.0" encoding="utf-8"?>
<svg id="master-artboard" viewBox="0 0 160 160" version="1.1" xmlns="http://www.w3.org/2000/svg" x="0px" y="0px" style="enable-background:new 0 0 1400 980;" width="160px" height="160px"><rect id="ee-background" x="0" y="0" width="160" height="160" style="fill: rgb(217, 252, 229); fill-opacity: 0; pointer-events: none;"/>

<path class="st0" d="M296.3,941.5c2.5-0.7,4.3-1.5,5.7-2.3c-3.6-4.7-9.1-23.8-12.3-23.9v0c-0.7,0-1.2,0-1.6,0&#10;&#9;&#9;&#9;c-1,0-1.6-0.1-1.7-0.1l-4.7-0.3l-0.3,16.8l-5.1-17.1l-10.1-0.5l0.7-2.4c-6.3-2-11.9-4.6-16.5-7.5l0,0c-5.9-3.7-10.6-7.9-13.7-11.7&#10;&#9;&#9;&#9;l12.3-28.3c1.3,0.1,2.1,0.2,2.3,0.2c0.6,0,1.2,0,1.9,0c1.9-0.1,3.9-0.5,5.9-1c1.9-0.6,4-1.4,6-2.5c0.4-0.2,0.7-0.4,0.9-0.5&#10;&#9;&#9;&#9;c13.5-7.6,21.6-22.4,25.1-38.6c3.7-16.9,2.3-34.9-3.2-47.9c-0.2-0.4-0.3-0.8-0.4-1l-1.4-4.6c-2-12.2-6.5-24-13.3-34.1&#10;&#9;&#9;&#9;c-6.3-9.3-14.6-17.1-24.6-22.2c-3.2-1.6-7.1-3.1-11.4-4.2c-3.7-1-7.4-1.6-10.8-1.7c-9.6-0.2-19.9,4.7-29.3,12.8&#10;&#9;&#9;&#9;c-10.1,8.8-18.9,21.4-24.3,35.8l-1.8,3.6c-1.4,2.1-2.6,4.4-3.7,7.1c-5.6,13.3-7.4,31.2-4.5,48.7c2.8,17,10,33.2,22.3,43.3&#10;&#9;&#9;&#9;c2.4,1.9,5,3.7,7.8,5.2c2.3,1.2,4.6,2.2,6.9,2.8c2.3,0.7,4.6,1,6.8,1.2c0.6,0,0.6,0,0.7,0c0.4,0,0.7,0,0.8,0l10.5,29.1&#10;&#9;&#9;&#9;c-4.7,5-11.8,9.6-20.8,12.4c-6.9,2.1-15.1,3.4-24.6,3l-2.9-0.1c-3.7,1.2-11.8,23.1-16.5,30.4l-0.2,0.3H296.3z" style="fill-rule: evenodd; clip-rule: evenodd; fill: rgb(230, 231, 232);" transform="matrix(0.551834762096405, 0, 0, 0.551834762096405, -51.178321838378906, -357.06314849853516)"/><path class="st1" d="M169.8,893.9c-6.1-0.7-30.7,32.4-32.7,47.6h181.4c1-13-18.1-42.9-28.5-43.1c-28.4-0.4-45.1-17.5-45.3-23.8&#10;&#9;&#9;&#9;c3.4-4.2,23.5-15.6,30.8-21.7c5.8-4.9,7.1-8,8.3-18.9c1-8.9,1.2-17.8,1.8-26.7l1-0.6c0.7-0.3,0.7-0.3,1.5-0.5&#10;&#9;&#9;&#9;c6.6-1.9,9.4-5.3,11.2-15.3c1-5.7,0.4-14.6-3.5-18.6c-1.9-2-4-1.7-5.4-2.4c1.6-88.3-130.9-91.4-125.6,0.4&#10;&#9;&#9;&#9;c-4.8,0.6-6.5,2.2-8.1,6.7c-1.4,4-1.7,9.4-0.9,14c1.7,10.3,4.9,14.4,13.8,15.7c0.1,8.7,0.9,18.8,1.7,27.2&#10;&#9;&#9;&#9;c1.2,11.9,2.1,13.7,8.6,19.3c5.4,4.6,31.1,20.5,31.8,22.2C211.8,883.4,196.8,896.3,169.8,893.9z" style="fill-rule: evenodd; clip-rule: evenodd; fill: rgb(252, 195, 117);" transform="matrix(0.551834762096405, 0, 0, 0.551834762096405, -51.178321838378906, -357.06314849853516)"/><path class="st1" d="M186.2,877.7c6.5,3.4,13.1,5.2,19.3,5.6c0.7,0,1.5,0.1,2.3,0.1c-5.7,6-17.4,11.5-34.4,10.8&#10;&#9;&#9;&#9;c-0.1-0.4-0.3-0.9-0.4-1.3c-1.4,0.2-2.9,0.6-4.4,1.2c-7.6,1.2-29.7,33.2-31.5,47.6h181.4c1-13-18.1-42.9-28.5-43.1&#10;&#9;&#9;&#9;c-0.9,0-1.9,0-2.8-0.1c0.2-0.5,0.3-1,0.4-1.5c-3-1.1-12.6-4.6-15.5-4.5c-0.4,0.9-0.7,2-1,3.1C259.9,892,252,886,247.9,881&#10;&#9;&#9;&#9;c2.4,0.2,4.5,0.2,6.1,0.1c5.7-0.3,11.8-2,17.7-5.1c37.5-19.8,44.3-78.2,29.5-110.9c-4.6-28.8-21-55.7-46.6-68.6&#10;&#9;&#9;&#9;c-7.9-4-18.4-7.3-28.2-7.4c-26.5-0.4-55,24.9-67.8,59C136.8,781.1,141.7,854.2,186.2,877.7z" style="fill-rule: evenodd; clip-rule: evenodd; fill: rgb(252, 195, 117);" transform="matrix(0.551834762096405, 0, 0, 0.551834762096405, -51.178321838378906, -357.06314849853516)"/><path class="st8" d="M224.1,868.6c-0.3,0-0.3-0.1-0.9,0c-1.1,0,1.1-0.1-0.6,0.1c-6.3,0.7-34.1-31.2-35.6-37.1&#10;&#9;&#9;&#9;c-9.9-40.5-7.8-53.2,4.7-89.6l-26.6-1.6c-0.2,0.2-0.3,0.3-0.5,0.5c-28.3,27.8-26.5,111.4,21.7,136.9c6.5,3.4,13.1,5.2,19.3,5.6&#10;&#9;&#9;&#9;c4.8,0.3,14.6-0.4,20.2-3.8c-1.7-1-7.3-1.6-10.8-4.5L224.1,868.6z" style="fill-rule: evenodd; clip-rule: evenodd; fill: rgb(60, 33, 14);" transform="matrix(0.551834762096405, 0, 0, 0.551834762096405, -51.178321838378906, -357.06314849853516)"/><path class="st8" d="M237,867.7c0.2,0,0.3-0.1,0.8,0c1,0-1-0.1,0.6,0c5.7,0.6,31.2-28.5,32.6-33.9c9.1-37.1,7.1-48.7-4.3-82&#10;&#9;&#9;&#9;l24.4-1.5c0.2,0.1,0.3,0.3,0.5,0.4c25.9,25.5,24.2,102-19.8,125.3c-5.9,3.1-12,4.8-17.7,5.1c-4.4,0.3-13.4-0.3-18.5-3.4&#10;&#9;&#9;&#9;c1.5-0.9,6.7-1.4,9.9-4.1L237,867.7z" style="fill-rule: evenodd; clip-rule: evenodd; fill: rgb(60, 33, 14);" transform="matrix(0.551834762096405, 0, 0, 0.551834762096405, -51.178321838378906, -357.06314849853516)"/><path class="st6" d="M203.4,851.8c-0.2-0.3-0.2-0.3-0.9-0.8c-1.1-0.9,1.1,0.8-0.6-0.5c-7.9-5.9-14.8-12.4-16.1-24.9&#10;&#9;&#9;&#9;c-1.5-14.2,0.8-26.6,5.1-38.4c4.2-11.4,9.6-20.2,15.7-28.3c4.1-5.4,15.6-18.9,20.9-21.8c1.9,1.6,3,3.6,4.6,5.4&#10;&#9;&#9;&#9;c4.1,4.6,10.2,9.6,15.4,13.1c6.4,4.3,16.9,10.6,24.7,13c1.2,9,3.9,44.2,2.3,51.6c-3.4,16.5-15.9,24.5-21.3,31.3&#10;&#9;&#9;&#9;c4.4-0.9,7.5-2.5,11.2-3.5c-1.3,3.5-6.7,9.6-8.9,11.7c13.5,0.4,30.3-21.6,37.1-34.8c22.5-44,5.6-106.3-38-128.5&#10;&#9;&#9;&#9;c-7.9-4-18.4-7.3-28.2-7.4c-45-0.8-95.9,73.1-65.4,137.3c4.1,8.6,9.4,16,15.2,21.8c4.5,4.5,14.4,12.5,22,14.5&#10;&#9;&#9;&#9;c-1-2.3-6.1-7.7-7.6-13.4L203.4,851.8z" style="fill-rule: evenodd; clip-rule: evenodd; fill: rgb(73, 41, 15);" transform="matrix(0.551834762096405, 0, 0, 0.551834762096405, -51.178321838378906, -357.06314849853516)"/><path class="st9" d="M278.3,941.5c1.2-5.5,2.7-26.5,4.7-32.7c1.3-4,3.8-8.7,4.5-11.9c-3-1.1-12.6-4.6-15.5-4.5&#10;&#9;&#9;&#9;c-2.7,7.3-2.6,35.7-15.2,48.4c-0.2,0.2-0.5,0.5-0.7,0.7H278.3z" style="fill-rule: evenodd; clip-rule: evenodd; fill: rgb(247, 170, 172);" transform="matrix(0.551834762096405, 0, 0, 0.551834762096405, -51.178321838378906, -357.06314849853516)"/><path class="st9" d="M192.6,941.5c-0.9-0.7-1.8-1.4-2.6-2.2c-8.5-7.8-12.9-33.3-17-46.5c-3.2,0.4-7.4,2.4-10.1,3.5&#10;&#9;&#9;&#9;c1.3,8.9,5.5,27.6,7.5,45.2H192.6z" style="fill-rule: evenodd; clip-rule: evenodd; fill: rgb(247, 170, 172);" transform="matrix(0.551834762096405, 0, 0, 0.551834762096405, -51.178321838378906, -357.06314849853516)"/><path class="st4" d="M168.1,750.1c-1.6-1,5.3-40.1,47.3-44.9C214.6,704.8,175.5,721.5,168.1,750.1z" style="fill-rule: evenodd; clip-rule: evenodd; fill: rgb(255, 255, 255);" transform="matrix(0.551834762096405, 0, 0, 0.551834762096405, -51.178321838378906, -357.06314849853516)"/>
</svg>